<svg width="65" height="65" viewBox="0 0 65 65" fill="none" xmlns="http://www.w3.org/2000/svg">
<g clip-path="url(#clip0_3541_2)">
<path d="M32.459 0.5C50.132 0.500016 64.459 14.827 64.459 32.5C64.459 50.173 50.132 64.5 32.459 64.5C18.0367 64.5 5.84188 54.9505 1.8457 41.835L13.958 46.833C14.558 49.561 16.4382 51.9525 19.2002 53.1025C21.3731 54.0054 23.8157 54.0089 25.9912 53.1123C28.1664 52.2157 29.897 50.4927 30.8027 48.3213C31.286 47.1645 31.5196 45.9183 31.4873 44.665L42.6797 36.6602L42.9551 36.665C49.6599 36.665 55.1102 31.1992 55.1104 24.4854C55.1104 17.7714 49.67 12.3246 42.9551 12.3105C36.2531 12.3105 30.7998 17.7714 30.7998 24.4854H30.8096L30.8135 24.6426L22.9834 36.0176C21.7155 35.9596 20.4432 36.1828 19.2354 36.6797C18.7095 36.8934 18.2074 37.1623 17.7373 37.4805L0.541992 30.3926C0.541992 30.3926 0.541154 30.3941 0.541016 30.3965C0.536619 30.3891 0.532729 30.3814 0.52832 30.374C1.62432 13.693 15.501 0.5 32.459 0.5ZM20.1855 38.4922C21.7635 37.8922 23.5583 37.8723 25.2363 38.5693C26.9361 39.2724 28.2357 40.5962 28.9316 42.2891C29.6276 43.9821 29.6239 45.8492 28.9219 47.5352L28.7861 47.8574C27.2256 51.1348 23.3546 52.6361 19.9766 51.2285C18.4295 50.5782 17.1754 49.382 16.4531 47.8672L20.4102 49.5068C21.0214 49.7613 21.6768 49.8925 22.3389 49.8936C23.0009 49.8946 23.6565 49.7652 24.2686 49.5127C24.8806 49.2602 25.4375 48.8904 25.9062 48.4229C26.375 47.9553 26.7469 47.3995 27.001 46.7881C27.5154 45.5527 27.5188 44.1634 27.0098 42.9258C26.5007 41.6881 25.521 40.7025 24.2861 40.1865L20.1855 38.4922ZM42.9658 16.376C45.1142 16.3813 47.1732 17.2377 48.6914 18.7578C50.2096 20.2781 51.064 22.3388 51.0664 24.4873C51.0645 26.636 50.2105 28.6962 48.6924 30.2168C47.1741 31.7375 45.1147 32.5943 42.9658 32.5996C40.8175 32.5937 38.759 31.7372 37.2412 30.2168C35.7234 28.6962 34.8701 26.6357 34.8682 24.4873C34.8705 22.3392 35.7235 20.279 37.2412 18.7588C38.759 17.2386 40.8177 16.3818 42.9658 16.376ZM42.9775 18.3789C41.3635 18.3817 39.8167 19.0253 38.6768 20.168C37.5368 21.3108 36.8972 22.8595 36.8984 24.4736C36.8976 26.0878 37.5365 27.6368 38.6768 28.7793C39.8169 29.9215 41.3637 30.5649 42.9775 30.5674C44.5921 30.5658 46.1404 29.9227 47.2812 28.7803C48.4221 27.6377 49.0623 26.0883 49.0615 24.4736C49.0613 21.1088 46.3324 18.3789 42.9775 18.3789Z" fill="#ECD6BB"/>
</g>
<defs>
<clipPath id="clip0_3541_2">
<rect width="65" height="65" fill="white"/>
</clipPath>
</defs>
</svg>
